<svg xmlns="http://www.w3.org/2000/svg" xmlns:xlink="http://www.w3.org/1999/xlink" viewBox="0 0 500 500"><defs><style>.cls-1{mask:url(#mask);filter:url(#luminosity-noclip-12);}.cls-10,.cls-12,.cls-14,.cls-16,.cls-18,.cls-2,.cls-20,.cls-22,.cls-26,.cls-29,.cls-32,.cls-4,.cls-52,.cls-56,.cls-6,.cls-8,.cls-87{mix-blend-mode:multiply;}.cls-2{fill:url(#linear-gradient);}.cls-3{mask:url(#mask-2);filter:url(#luminosity-noclip-17);}.cls-4{fill:url(#linear-gradient-2);}.cls-5{mask:url(#mask-3);filter:url(#luminosity-noclip-18);}.cls-6{fill:url(#linear-gradient-3);}.cls-7{mask:url(#mask-4);filter:url(#luminosity-noclip-19);}.cls-8{fill:url(#linear-gradient-4);}.cls-9{mask:url(#mask-5);filter:url(#luminosity-noclip-20);}.cls-10{fill:url(#linear-gradient-5);}.cls-11{mask:url(#mask-6);filter:url(#luminosity-noclip-21);}.cls-12{fill:url(#linear-gradient-6);}.cls-13{mask:url(#mask-7);filter:url(#luminosity-noclip-13);}.cls-14{fill:url(#linear-gradient-7);}.cls-15{mask:url(#mask-8);filter:url(#luminosity-noclip-22);}.cls-16{fill:url(#linear-gradient-8);}.cls-17{mask:url(#mask-9);filter:url(#luminosity-noclip-14);}.cls-18{fill:url(#linear-gradient-9);}.cls-19{mask:url(#mask-10);filter:url(#luminosity-noclip-15);}.cls-20{fill:url(#linear-gradient-10);}.cls-21{mask:url(#mask-11);filter:url(#luminosity-noclip-16);}.cls-22{fill:url(#linear-gradient-11);}.cls-23{isolation:isolate;}.cls-24{fill:url(#linear-gradient-12);}.cls-25{fill:url(#radial-gradient);}.cls-27{fill:url(#radial-gradient-2);}.cls-28,.cls-42,.cls-91{fill:#fff;}.cls-28,.cls-50,.cls-85,.cls-86{mix-blend-mode:screen;}.cls-29{fill:url(#radial-gradient-3);}.cls-30{fill:url(#radial-gradient-4);}.cls-31{fill:url(#radial-gradient-5);}.cls-32{fill:url(#radial-gradient-6);}.cls-33{fill:url(#radial-gradient-7);}.cls-34{fill:url(#radial-gradient-8);}.cls-35{fill:url(#radial-gradient-9);}.cls-36{fill:url(#radial-gradient-10);}.cls-37{fill:url(#radial-gradient-11);}.cls-38{fill:#f9e820;}.cls-39{fill:#ffcc09;}.cls-40{mask:url(#mask-12);}.cls-41{fill:url(#linear-gradient-13);}.cls-43{mask:url(#mask-13);}.cls-44{fill:url(#linear-gradient-14);}.cls-45{fill:url(#linear-gradient-15);}.cls-46{fill:url(#linear-gradient-16);}.cls-47{fill:url(#linear-gradient-17);}.cls-48{fill:url(#linear-gradient-18);}.cls-49{fill:url(#linear-gradient-19);}.cls-51{fill:url(#linear-gradient-20);}.cls-52{opacity:0.2;}.cls-53{fill:url(#linear-gradient-21);}.cls-54{fill:url(#radial-gradient-12);}.cls-55{fill:url(#linear-gradient-22);}.cls-56{opacity:0.6;}.cls-57{fill:url(#linear-gradient-23);}.cls-58{fill:url(#radial-gradient-13);}.cls-59{mask:url(#mask-14);}.cls-60{fill:url(#linear-gradient-24);}.cls-61{fill:url(#radial-gradient-14);}.cls-62{fill:url(#linear-gradient-25);}.cls-63{fill:url(#linear-gradient-26);}.cls-64{fill:url(#radial-gradient-15);}.cls-65{mask:url(#mask-15);}.cls-66{fill:url(#linear-gradient-27);}.cls-67{mask:url(#mask-16);}.cls-68{fill:url(#linear-gradient-28);}.cls-69{mask:url(#mask-17);}.cls-70{fill:url(#linear-gradient-29);}.cls-71{mask:url(#mask-18);}.cls-72{fill:url(#linear-gradient-30);}.cls-73{mask:url(#mask-19);}.cls-74{fill:url(#linear-gradient-31);}.cls-75{mask:url(#mask-20);}.cls-76{fill:url(#linear-gradient-32);}.cls-77{fill:url(#linear-gradient-33);}.cls-78{fill:url(#linear-gradient-34);}.cls-79{fill:url(#radial-gradient-16);}.cls-80{fill:url(#linear-gradient-35);}.cls-81{fill:url(#linear-gradient-36);}.cls-82{fill:url(#linear-gradient-37);}.cls-83{mask:url(#mask-21);}.cls-84{fill:url(#linear-gradient-38);}.cls-85,.cls-86,.cls-87,.cls-91{opacity:0.5;}.cls-85{fill:url(#linear-gradient-39);}.cls-86{fill:url(#linear-gradient-40);}.cls-88{fill:url(#linear-gradient-41);}.cls-89{mask:url(#mask-22);}.cls-90{fill:url(#linear-gradient-42);}.cls-92{filter:url(#luminosity-noclip-11);}.cls-93{filter:url(#luminosity-noclip-10);}.cls-94{filter:url(#luminosity-noclip-9);}.cls-95{filter:url(#luminosity-noclip-8);}.cls-96{filter:url(#luminosity-noclip-7);}.cls-97{filter:url(#luminosity-noclip-6);}.cls-98{filter:url(#luminosity-noclip-5);}.cls-99{filter:url(#luminosity-noclip-4);}.cls-100{filter:url(#luminosity-noclip-3);}.cls-101{filter:url(#luminosity-noclip-2);}.cls-102{filter:url(#luminosity-noclip);}</style><filter id="luminosity-noclip" x="188.54" y="-8442" width="18.3" height="32766" filterUnits="userSpaceOnUse" color-interpolation-filters="sRGB"><feFlood flood-color="#fff" result="bg"/><feBlend in="SourceGraphic" in2="bg"/></filter><mask id="mask" x="188.54" y="-8442" width="18.3" height="32766" maskUnits="userSpaceOnUse"><g class="cls-102"/></mask><linearGradient id="linear-gradient" x1="190.92" y1="42.28" x2="201.47" y2="53.77" gradientUnits="userSpaceOnUse"><stop offset="0.37"/><stop offset="0.43" stop-color="#050505"/><stop offset="0.5" stop-color="#131313"/><stop offset="0.57" stop-color="#2a2a2a"/><stop offset="0.65" stop-color="#4b4b4b"/><stop offset="0.73" stop-color="#757575"/><stop offset="0.81" stop-color="#a8a8a8"/><stop offset="0.89" stop-color="#e4e4e4"/><stop offset="0.93" stop-color="#fff"/></linearGradient><filter id="luminosity-noclip-2" x="186.88" y="-8442" width="23.36" height="32766" filterUnits="userSpaceOnUse" color-interpolation-filters="sRGB"><feFlood flood-color="#fff" result="bg"/><feBlend in="SourceGraphic" in2="bg"/></filter><mask id="mask-2" x="186.88" y="-8442" width="23.36" height="32766" maskUnits="userSpaceOnUse"><g class="cls-101"/></mask><linearGradient id="linear-gradient-2" x1="184.73" y1="80.99" x2="222.46" y2="79.77" gradientTransform="matrix(0.96, 0.04, -0.04, 1, 1.35, -5.03)" gradientUnits="userSpaceOnUse"><stop offset="0.27"/><stop offset="0.35" stop-color="#050505"/><stop offset="0.44" stop-color="#131313"/><stop offset="0.53" stop-color="#2a2a2a"/><stop offset="0.63" stop-color="#4b4b4b"/><stop offset="0.74" stop-color="#757575"/><stop offset="0.85" stop-color="#a8a8a8"/><stop offset="0.95" stop-color="#e4e4e4"/><stop offset="1" stop-color="#fff"/></linearGradient><filter id="luminosity-noclip-3" x="202.61" y="-8442" width="7.63" height="32766" filterUnits="userSpaceOnUse" color-interpolation-filters="sRGB"><feFlood flood-color="#fff" result="bg"/><feBlend in="SourceGraphic" in2="bg"/></filter><mask id="mask-3" x="202.61" y="-8442" width="7.63" height="32766" maskUnits="userSpaceOnUse"><g class="cls-100"/></mask><linearGradient id="linear-gradient-3" x1="184.62" y1="77.4" x2="222.34" y2="76.18" xlink:href="#linear-gradient-2"/><filter id="luminosity-noclip-4" x="304.52" y="-8442" width="23.36" height="32766" filterUnits="userSpaceOnUse" color-interpolation-filters="sRGB"><feFlood flood-color="#fff" result="bg"/><feBlend in="SourceGraphic" in2="bg"/></filter><mask id="mask-4" x="304.52" y="-8442" width="23.36" height="32766" maskUnits="userSpaceOnUse"><g class="cls-99"/></mask><linearGradient id="linear-gradient-4" x1="698.95" y1="61.43" x2="736.68" y2="60.21" gradientTransform="matrix(-0.96, 0.04, 0.04, 1, 1008.96, -5.03)" xlink:href="#linear-gradient-2"/><filter id="luminosity-noclip-5" x="304.52" y="-8442" width="7.63" height="32766" filterUnits="userSpaceOnUse" color-interpolation-filters="sRGB"><feFlood flood-color="#fff" result="bg"/><feBlend in="SourceGraphic" in2="bg"/></filter><mask id="mask-5" x="304.52" y="-8442" width="7.63" height="32766" maskUnits="userSpaceOnUse"><g class="cls-98"/></mask><linearGradient id="linear-gradient-5" x1="698.84" y1="57.84" x2="736.56" y2="56.63" gradientTransform="matrix(-0.96, 0.04, 0.04, 1, 1008.96, -5.03)" xlink:href="#linear-gradient-2"/><filter id="luminosity-noclip-6" x="307.97" y="-8442" width="22.84" height="32766" filterUnits="userSpaceOnUse" color-interpolation-filters="sRGB"><feFlood flood-color="#fff" result="bg"/><feBlend in="SourceGraphic" in2="bg"/></filter><mask id="mask-6" x="307.97" y="-8442" width="22.84" height="32766" maskUnits="userSpaceOnUse"><g class="cls-97"/></mask><linearGradient id="linear-gradient-6" x1="673.69" y1="240.17" x2="696.53" y2="240.17" gradientTransform="matrix(-1, 0, 0, 0.58, 1004.5, 58)" xlink:href="#linear-gradient-2"/><filter id="luminosity-noclip-7" x="305.61" y="-8442" width="18.3" height="32766" filterUnits="userSpaceOnUse" color-interpolation-filters="sRGB"><feFlood flood-color="#fff" result="bg"/><feBlend in="SourceGraphic" in2="bg"/></filter><mask id="mask-7" x="305.61" y="-8442" width="18.3" height="32766" maskUnits="userSpaceOnUse"><g class="cls-96"/></mask><linearGradient id="linear-gradient-7" x1="613.15" y1="42.28" x2="623.71" y2="53.77" gradientTransform="matrix(-1, 0, 0, 1, 934.68, 0)" xlink:href="#linear-gradient"/><filter id="luminosity-noclip-8" x="181.62" y="-8442" width="144.53" height="32766" filterUnits="userSpaceOnUse" color-interpolation-filters="sRGB"><feFlood flood-color="#fff" result="bg"/><feBlend in="SourceGraphic" in2="bg"/></filter><mask id="mask-8" x="181.62" y="-8442" width="144.53" height="32766" maskUnits="userSpaceOnUse"><g class="cls-95"/></mask><linearGradient id="linear-gradient-8" x1="554.57" y1="310.52" x2="468.02" y2="406.6" gradientTransform="translate(790.95 673.11) rotate(180)" xlink:href="#linear-gradient-2"/><filter id="luminosity-noclip-9" x="181.54" y="-8442" width="22.84" height="32766" filterUnits="userSpaceOnUse" color-interpolation-filters="sRGB"><feFlood flood-color="#fff" result="bg"/><feBlend in="SourceGraphic" in2="bg"/></filter><mask id="mask-9" x="181.54" y="-8442" width="22.84" height="32766" maskUnits="userSpaceOnUse"><g class="cls-94"/></mask><linearGradient id="linear-gradient-9" x1="181.54" y1="240.17" x2="204.38" y2="240.17" gradientTransform="translate(0 58) scale(1 0.58)" xlink:href="#linear-gradient-2"/><filter id="luminosity-noclip-10" x="208.25" y="-8442" width="95.57" height="32766" filterUnits="userSpaceOnUse" color-interpolation-filters="sRGB"><feFlood flood-color="#fff" result="bg"/><feBlend in="SourceGraphic" in2="bg"/></filter><mask id="mask-10" x="208.25" y="-8442" width="95.57" height="32766" maskUnits="userSpaceOnUse"><g class="cls-93"/></mask><linearGradient id="linear-gradient-10" x1="256.04" y1="258.97" x2="256.04" y2="158.47" gradientTransform="matrix(1, 0, 0, 1, 0, 0)" xlink:href="#linear-gradient-2"/><filter id="luminosity-noclip-11" x="217.3" y="-8442" width="70.48" height="32766" filterUnits="userSpaceOnUse" color-interpolation-filters="sRGB"><feFlood flood-color="#fff" result="bg"/><feBlend in="SourceGraphic" in2="bg"/></filter><mask id="mask-11" x="217.3" y="-8442" width="70.48" height="32766" maskUnits="userSpaceOnUse"><g class="cls-92"/></mask><linearGradient id="linear-gradient-11" x1="323.95" y1="139.21" x2="223.07" y2="57.92" gradientTransform="matrix(1, 0, 0, 1, 0, 0)" xlink:href="#linear-gradient-2"/><linearGradient id="linear-gradient-12" x1="254.79" y1="238.86" x2="254.79" y2="224.23" gradientUnits="userSpaceOnUse"><stop offset="0.39" stop-color="#1f211e"/><stop offset="0.47" stop-color="#242623"/><stop offset="0.56" stop-color="#333431"/><stop offset="0.66" stop-color="#4b4b48"/><stop offset="0.71" stop-color="#5a5a57"/><stop offset="0.76" stop-color="#6a6967"/><stop offset="0.85" stop-color="#929190"/><stop offset="0.92" stop-color="#b4b2b3"/></linearGradient><radialGradient id="radial-gradient" cx="175.34" cy="118.52" r="36.89" gradientUnits="userSpaceOnUse"><stop offset="0" stop-color="#5b585c"/><stop offset="0" stop-color="#5c595d"/><stop offset="0.05" stop-color="#807c82"/><stop offset="0.11" stop-color="#9d989f"/><stop offset="0.16" stop-color="#b2abb4"/><stop offset="0.21" stop-color="#beb7c1"/><stop offset="0.26" stop-color="#c2bbc5"/><stop offset="0.27" stop-color="#c5bec7"/><stop offset="0.41" stop-color="#dcd7d6"/><stop offset="0.54" stop-color="#eae7e0"/><stop offset="0.65" stop-color="#efece3"/><stop offset="0.75" stop-color="#f6f5f0"/><stop offset="0.85" stop-color="#fff"/><stop offset="0.89" stop-color="#fbfbfc"/><stop offset="0.92" stop-color="#f0eff1"/><stop offset="0.96" stop-color="#dedbe0"/><stop offset="1" stop-color="#c5bec8"/><stop offset="1" stop-color="#c2bbc5"/></radialGradient><radialGradient id="radial-gradient-2" cx="76.14" cy="114.22" r="54.26" gradientTransform="matrix(-1, 0, 0, 1, -30.97, 0)" xlink:href="#radial-gradient"/><radialGradient id="radial-gradient-3" cx="72.1" cy="106.15" r="79.32" gradientTransform="matrix(-1, 0, 0, 1, -30.97, 0)" xlink:href="#radial-gradient"/><radialGradient id="radial-gradient-4" cx="891.44" cy="118.52" r="36.89" gradientTransform="matrix(-1, 0, 0, 1, 1227.81, 0)" xlink:href="#radial-gradient"/><radialGradient id="radial-gradient-5" cx="-639.96" cy="114.22" r="54.26" gradientTransform="translate(1258.78)" xlink:href="#radial-gradient"/><radialGradient id="radial-gradient-6" cx="-643.99" cy="106.15" r="79.32" gradientTransform="translate(1258.78)" xlink:href="#radial-gradient"/><radialGradient id="radial-gradient-7" cx="252.99" cy="26.37" r="132.97" xlink:href="#radial-gradient"/><radialGradient id="radial-gradient-8" cx="215.29" cy="48.23" r="94" xlink:href="#radial-gradient"/><radialGradient id="radial-gradient-9" cx="256.57" cy="66.41" r="166.45" xlink:href="#radial-gradient"/><radialGradient id="radial-gradient-10" cx="296.55" cy="46.39" r="89.62" xlink:href="#radial-gradient"/><radialGradient id="radial-gradient-11" cx="257.65" cy="27.86" r="41.43" gradientUnits="userSpaceOnUse"><stop offset="0.39" stop-color="#1f211e"/><stop offset="0.51" stop-color="#242623"/><stop offset="0.65" stop-color="#333431"/><stop offset="0.8" stop-color="#4b4b48"/><stop offset="0.87" stop-color="#5a5956"/><stop offset="0.9" stop-color="#5d5c59"/><stop offset="0.93" stop-color="#676664"/><stop offset="0.95" stop-color="#787875"/><stop offset="0.97" stop-color="#90908e"/><stop offset="1" stop-color="#aeaead"/><stop offset="1" stop-color="#b4b4b3"/></radialGradient><filter id="luminosity-noclip-12" x="188.54" y="43.27" width="18.3" height="12.9" filterUnits="userSpaceOnUse" color-interpolation-filters="sRGB"><feFlood flood-color="#fff" result="bg"/><feBlend in="SourceGraphic" in2="bg"/></filter><mask id="mask-12" x="188.54" y="43.27" width="18.3" height="12.9" maskUnits="userSpaceOnUse"><g class="cls-1"><path class="cls-2" d="M204.46,43.37c-9,3.78-13.62,8.4-15.92,11.71a14.7,14.7,0,0,0,13.73-1.41c5.64-3.57,4.95-7.79,3.7-10.4Z"/></g></mask><linearGradient id="linear-gradient-13" x1="190.92" y1="42.28" x2="201.47" y2="53.77" gradientUnits="userSpaceOnUse"><stop offset="0.37" stop-color="#f2f0f1"/><stop offset="0.93" stop-color="#f2f0f1"/></linearGradient><filter id="luminosity-noclip-13" x="305.61" y="43.27" width="18.3" height="12.9" filterUnits="userSpaceOnUse" color-interpolation-filters="sRGB"><feFlood flood-color="#fff" result="bg"/><feBlend in="SourceGraphic" in2="bg"/></filter><mask id="mask-13" x="305.61" y="43.27" width="18.3" height="12.9" maskUnits="userSpaceOnUse"><g class="cls-13"><path class="cls-14" d="M308,43.37c9,3.78,13.61,8.4,15.92,11.71a14.72,14.72,0,0,1-13.74-1.41c-5.63-3.57-4.95-7.79-3.69-10.4Z"/></g></mask><linearGradient id="linear-gradient-14" x1="613.15" y1="42.28" x2="623.71" y2="53.77" gradientTransform="matrix(-1, 0, 0, 1, 934.68, 0)" xlink:href="#linear-gradient-13"/><linearGradient id="linear-gradient-15" x1="225.74" y1="41.91" x2="287.66" y2="41.91" gradientUnits="userSpaceOnUse"><stop offset="0" stop-color="#5b585c"/><stop offset="0.12" stop-color="#969098"/><stop offset="0.22" stop-color="#c2bbc5"/><stop offset="0.24" stop-color="#c5bec7"/><stop offset="0.39" stop-color="#dcd7d6"/><stop offset="0.53" stop-color="#eae7e0"/><stop offset="0.65" stop-color="#efece3"/><stop offset="0.75" stop-color="#f6f5f0"/><stop offset="0.85" stop-color="#fff"/><stop offset="0.89" stop-color="#fbfbfc"/><stop offset="0.92" stop-color="#f0eff1"/><stop offset="0.96" stop-color="#dedbe0"/><stop offset="1" stop-color="#c5bec8"/><stop offset="1" stop-color="#c2bbc5"/></linearGradient><linearGradient id="linear-gradient-16" x1="227.69" y1="45.03" x2="285.71" y2="45.03" xlink:href="#linear-gradient-15"/><linearGradient id="linear-gradient-17" x1="234.94" y1="47.72" x2="278.46" y2="47.72" xlink:href="#linear-gradient-15"/><linearGradient id="linear-gradient-18" x1="256.17" y1="149.14" x2="256.17" y2="101.73" gradientUnits="userSpaceOnUse"><stop offset="0" stop-color="#519ca1"/><stop offset="0.21" stop-color="#3d6f74"/><stop offset="0.39" stop-color="#2e4e53"/><stop offset="0.55" stop-color="#253a3f"/><stop offset="0.65" stop-color="#223338"/></linearGradient><linearGradient id="linear-gradient-19" x1="256.17" y1="149.14" x2="256.17" y2="101.73" xlink:href="#linear-gradient-18"/><linearGradient id="linear-gradient-20" x1="210.12" y1="131.53" x2="231.46" y2="131.53" xlink:href="#linear-gradient-18"/><linearGradient id="linear-gradient-21" x1="256.17" y1="149.14" x2="256.17" y2="101.73" xlink:href="#linear-gradient-18"/><radialGradient id="radial-gradient-12" cx="217.21" cy="181.13" r="84.23" xlink:href="#radial-gradient"/><linearGradient id="linear-gradient-22" x1="200.97" y1="172.18" x2="176.75" y2="172.18" xlink:href="#linear-gradient-18"/><linearGradient id="linear-gradient-23" x1="200.97" y1="172.18" x2="176.75" y2="172.18" xlink:href="#linear-gradient-18"/><radialGradient id="radial-gradient-13" cx="227.52" cy="198.95" r="110.3" xlink:href="#radial-gradient"/><filter id="luminosity-noclip-14" x="181.54" y="194.64" width="22.84" height="3.32" filterUnits="userSpaceOnUse" color-interpolation-filters="sRGB"><feFlood flood-color="#fff" result="bg"/><feBlend in="SourceGraphic" in2="bg"/></filter><mask id="mask-14" x="181.54" y="194.64" width="22.84" height="3.32" maskUnits="userSpaceOnUse"><g class="cls-17"><rect class="cls-18" x="181.54" y="194.64" width="22.84" height="3.32"/></g></mask><linearGradient id="linear-gradient-24" x1="181.54" y1="240.17" x2="204.38" y2="240.17" gradientTransform="translate(0 58) scale(1 0.58)" gradientUnits="userSpaceOnUse"><stop offset="0.27" stop-color="#f2f0f1"/><stop offset="0.65" stop-color="#f6f5f5"/><stop offset="1" stop-color="#fff"/></linearGradient><radialGradient id="radial-gradient-14" cx="664.17" cy="180.35" r="63.85" gradientTransform="matrix(-1, 0, 0, 1, 981, 0)" xlink:href="#radial-gradient"/><linearGradient id="linear-gradient-25" x1="669.35" y1="172.18" x2="645.13" y2="172.18" gradientTransform="matrix(-1, 0, 0, 1, 981, 0)" xlink:href="#linear-gradient-18"/><linearGradient id="linear-gradient-26" x1="669.34" y1="172.18" x2="645.13" y2="172.18" gradientTransform="matrix(-1, 0, 0, 1, 981, 0)" xlink:href="#linear-gradient-18"/><radialGradient id="radial-gradient-15" cx="760.31" cy="198.95" r="110.31" gradientTransform="matrix(-1, 0, 0, 1, 1045.28, 0)" xlink:href="#radial-gradient"/><filter id="luminosity-noclip-15" x="208.25" y="158.41" width="95.57" height="55.75" filterUnits="userSpaceOnUse" color-interpolation-filters="sRGB"><feFlood flood-color="#fff" result="bg"/><feBlend in="SourceGraphic" in2="bg"/></filter><mask id="mask-15" x="208.25" y="158.41" width="95.57" height="55.75" maskUnits="userSpaceOnUse"><g class="cls-19"><path class="cls-20" d="M303.82,208c0,3.4-2.13,6.16-4.76,6.16H213c-2.64,0-4.77-2.76-4.77-6.16V164.57c0-3.4,2.13-6.16,4.77-6.16h86c2.63,0,4.76,2.76,4.76,6.16Z"/></g></mask><linearGradient id="linear-gradient-27" x1="256.04" y1="258.97" x2="256.04" y2="158.47" gradientTransform="matrix(1, 0, 0, 1, 0, 0)" xlink:href="#linear-gradient-24"/><filter id="luminosity-noclip-16" x="217.3" y="53.69" width="70.48" height="55.42" filterUnits="userSpaceOnUse" color-interpolation-filters="sRGB"><feFlood flood-color="#fff" result="bg"/><feBlend in="SourceGraphic" in2="bg"/></filter><mask id="mask-16" x="217.3" y="53.69" width="70.48" height="55.42" maskUnits="userSpaceOnUse"><g class="cls-21"><path class="cls-22" d="M287.78,54.23s-15.06,47.88-70.48,54.88c5.38-51.12,1.62-55.42,15.61-55.42S287.78,54.23,287.78,54.23Z"/></g></mask><linearGradient id="linear-gradient-28" x1="323.95" y1="139.21" x2="223.07" y2="57.92" gradientTransform="matrix(1, 0, 0, 1, 0, 0)" xlink:href="#linear-gradient-24"/><filter id="luminosity-noclip-17" x="186.88" y="60.29" width="23.36" height="45.52" filterUnits="userSpaceOnUse" color-interpolation-filters="sRGB"><feFlood flood-color="#fff" result="bg"/><feBlend in="SourceGraphic" in2="bg"/></filter><mask id="mask-17" x="186.88" y="60.29" width="23.36" height="45.52" maskUnits="userSpaceOnUse"><g class="cls-3"><path class="cls-4" d="M210.07,65.08s-1.82,13-3.56,24-7.85,13-13.46,15.79-7.57-.57-5.17-14.89,2.32-25.47,9.47-27.63S211.4,58.06,210.07,65.08Z"/></g></mask><linearGradient id="linear-gradient-29" x1="184.73" y1="80.99" x2="222.46" y2="79.77" gradientTransform="matrix(0.96, 0.04, -0.04, 1, 1.35, -5.03)" xlink:href="#linear-gradient-24"/><filter id="luminosity-noclip-18" x="202.61" y="60.29" width="7.63" height="38.41" filterUnits="userSpaceOnUse" color-interpolation-filters="sRGB"><feFlood flood-color="#fff" result="bg"/><feBlend in="SourceGraphic" in2="bg"/></filter><mask id="mask-18" x="202.61" y="60.29" width="7.63" height="38.41" maskUnits="userSpaceOnUse"><g class="cls-5"><path class="cls-6" d="M206,60.32c1.26,1.69,2.19,4.77,1.24,10.35-1.31,7.59-3.34,20-4.63,28,1.79-2.14,3.19-5.12,3.9-9.57,1.74-11.07,3.56-24,3.56-24C210.81,61.16,209,60.11,206,60.32Z"/></g></mask><linearGradient id="linear-gradient-30" x1="184.62" y1="77.4" x2="222.34" y2="76.18" gradientTransform="matrix(0.96, 0.04, -0.04, 1, 1.35, -5.03)" gradientUnits="userSpaceOnUse"><stop offset="0.27" stop-color="#f2f0f1"/><stop offset="1" stop-color="#f2f0f1"/></linearGradient><filter id="luminosity-noclip-19" x="304.52" y="60.29" width="23.36" height="45.52" filterUnits="userSpaceOnUse" color-interpolation-filters="sRGB"><feFlood flood-color="#fff" result="bg"/><feBlend in="SourceGraphic" in2="bg"/></filter><mask id="mask-19" x="304.52" y="60.29" width="23.36" height="45.52" maskUnits="userSpaceOnUse"><g class="cls-7"><path class="cls-8" d="M304.69,65.08s1.82,13,3.57,24,7.84,13,13.45,15.79,7.57-.57,5.17-14.89-2.31-25.47-9.47-27.63S303.36,58.06,304.69,65.08Z"/></g></mask><linearGradient id="linear-gradient-31" x1="698.95" y1="61.43" x2="736.68" y2="60.21" gradientTransform="matrix(-0.96, 0.04, 0.04, 1, 1008.96, -5.03)" xlink:href="#linear-gradient-24"/><filter id="luminosity-noclip-20" x="304.52" y="60.29" width="7.63" height="38.41" filterUnits="userSpaceOnUse" color-interpolation-filters="sRGB"><feFlood flood-color="#fff" result="bg"/><feBlend in="SourceGraphic" in2="bg"/></filter><mask id="mask-20" x="304.52" y="60.29" width="7.63" height="38.41" maskUnits="userSpaceOnUse"><g class="cls-9"><path class="cls-10" d="M308.76,60.32c-1.26,1.69-2.19,4.77-1.23,10.35,1.3,7.59,3.33,20,4.62,28-1.79-2.14-3.19-5.12-3.89-9.57-1.75-11.07-3.57-24-3.57-24C304,61.16,305.77,60.11,308.76,60.32Z"/></g></mask><linearGradient id="linear-gradient-32" x1="698.84" y1="57.84" x2="736.56" y2="56.63" gradientTransform="matrix(-0.96, 0.04, 0.04, 1, 1008.96, -5.03)" xlink:href="#linear-gradient-30"/><linearGradient id="linear-gradient-33" x1="161.35" y1="343.14" x2="205.47" y2="343.14" gradientUnits="userSpaceOnUse"><stop offset="0" stop-color="#454347"/><stop offset="0.02" stop-color="#525054"/><stop offset="0.08" stop-color="#6e6b71"/><stop offset="0.14" stop-color="#837e86"/><stop offset="0.2" stop-color="#8f8a93"/><stop offset="0.26" stop-color="#938e97"/><stop offset="0.37" stop-color="#a29ea1"/><stop offset="0.52" stop-color="#b1aeaa"/><stop offset="0.65" stop-color="#b6b3ad"/><stop offset="0.78" stop-color="#bdbcba"/><stop offset="0.85" stop-color="#c2c2c2"/><stop offset="0.89" stop-color="#bebebf"/><stop offset="0.93" stop-color="#b3b2b5"/><stop offset="0.98" stop-color="#a19ea4"/><stop offset="1" stop-color="#938e97"/></linearGradient><linearGradient id="linear-gradient-34" x1="254.22" y1="223.62" x2="251.74" y2="301.28" xlink:href="#linear-gradient-33"/><radialGradient id="radial-gradient-16" cx="295.11" cy="466.76" r="123.88" xlink:href="#linear-gradient-33"/><linearGradient id="linear-gradient-35" x1="335.25" y1="343.14" x2="324.15" y2="343.14" xlink:href="#linear-gradient-33"/><linearGradient id="linear-gradient-36" x1="254.79" y1="465.61" x2="254.79" y2="450.98" xlink:href="#linear-gradient-12"/><linearGradient id="linear-gradient-37" x1="175.79" y1="343.14" x2="332.02" y2="343.14" xlink:href="#linear-gradient-33"/><filter id="luminosity-noclip-21" x="307.97" y="194.64" width="22.84" height="3.32" filterUnits="userSpaceOnUse" color-interpolation-filters="sRGB"><feFlood flood-color="#fff" result="bg"/><feBlend in="SourceGraphic" in2="bg"/></filter><mask id="mask-21" x="307.97" y="194.64" width="22.84" height="3.32" maskUnits="userSpaceOnUse"><g class="cls-11"><rect class="cls-12" x="307.97" y="194.64" width="22.84" height="3.32"/></g></mask><linearGradient id="linear-gradient-38" x1="673.69" y1="240.17" x2="696.53" y2="240.17" gradientTransform="matrix(-1, 0, 0, 0.58, 1004.5, 58)" xlink:href="#linear-gradient-24"/><linearGradient id="linear-gradient-39" x1="254.49" y1="269.44" x2="254.49" y2="216.89" xlink:href="#linear-gradient-12"/><linearGradient id="linear-gradient-40" x1="254.49" y1="493.92" x2="254.49" y2="441.37" xlink:href="#linear-gradient-12"/><linearGradient id="linear-gradient-41" x1="175.79" y1="343.14" x2="332.02" y2="343.14" xlink:href="#linear-gradient-33"/><filter id="luminosity-noclip-22" x="181.62" y="244.69" width="144.53" height="196.92" filterUnits="userSpaceOnUse" color-interpolation-filters="sRGB"><feFlood flood-color="#fff" result="bg"/><feBlend in="SourceGraphic" in2="bg"/></filter><mask id="mask-22" x="181.62" y="244.69" width="144.53" height="196.92" maskUnits="userSpaceOnUse"><g class="cls-15"><path class="cls-16" d="M319.07,343V441.6h7.09V244.69H181.62v2.14C282.61,248.64,319.07,272.24,319.07,343Z"/></g></mask><linearGradient id="linear-gradient-42" x1="554.57" y1="310.52" x2="468.02" y2="406.6" gradientTransform="translate(790.95 673.11) rotate(180)" xlink:href="#linear-gradient-24"/></defs><title>GHT</title><g class="cls-23"><g id="Layer_1" data-name="Layer 1"><rect class="cls-24" x="185.12" y="225.94" width="139.34" height="7.98"/><path class="cls-25" d="M182.64,124.81s-7.32,3.42-10.06,8.89-2.43,7.9-11.86,6.69S150.08,138,151.3,131s3.95-12.16,13.07-11.55,19.15.91,19.15.91Z"/><g class="cls-26"><path class="cls-27" d="M167.21,136.43c.35-3.84,2.1-5.59,5.24-9.78,2.27-3-10.92-3.32-18.44-3.25,1.94-2.76,5.08-4.34,10.36-4,9.12.61,19.15.91,19.15.91l-.88,4.49s-7.32,3.42-10.06,8.89-2.43,7.9-11.86,6.69c-1.31-.17-2.45-.34-3.46-.53C162.69,140,167,139,167.21,136.43Z"/></g><path class="cls-28" d="M154.29,125.6s-.25,1-.57,2.38c-.15.72-.31,1.54-.43,2.43-.06.44-.09.9-.12,1.36a9.06,9.06,0,0,0,0,1.38,5.63,5.63,0,0,0,.25,1.31,3.9,3.9,0,0,0,.55,1.12l.18.24.21.21a2.67,2.67,0,0,0,.44.38,5.24,5.24,0,0,0,1,.51,4.59,4.59,0,0,0,.48.17,2.64,2.64,0,0,0,.44.12c.29.06.54.14.75.16l.67.1s-.24.05-.68.11a6.2,6.2,0,0,1-.79,0,5,5,0,0,1-1-.11,4.35,4.35,0,0,1-1.2-.43,3.68,3.68,0,0,1-1.15-.92,4.35,4.35,0,0,1-.78-1.36,6.4,6.4,0,0,1-.33-1.55,10.12,10.12,0,0,1,.23-3,11.89,11.89,0,0,1,.35-1.31,11.28,11.28,0,0,1,.41-1.13A11.82,11.82,0,0,1,154.29,125.6Z"/><path class="cls-29" d="M164.37,119.41c9.12.61,19.15.91,19.15.91l-.45,2.3-27-1.36C158,119.87,160.67,119.16,164.37,119.41Z"/><path class="cls-30" d="M329.07,124.81s7.32,3.42,10.06,8.89,2.43,7.9,11.86,6.69,10.64-2.43,9.42-9.43-4-12.16-13.07-11.55-19.16.91-19.16.91Z"/><g class="cls-26"><path class="cls-31" d="M344.5,136.43c-.35-3.84-2.1-5.59-5.24-9.78-2.27-3,10.92-3.32,18.44-3.25-1.94-2.76-5.08-4.34-10.36-4-9.12.61-19.16.91-19.16.91l.89,4.49s7.32,3.42,10.06,8.89,2.43,7.9,11.86,6.69c1.31-.17,2.45-.34,3.46-.53C349,140,344.73,139,344.5,136.43Z"/></g><path class="cls-28" d="M357.42,125.6a12.6,12.6,0,0,1,1.14,2.21c.14.34.28.72.41,1.13a11.89,11.89,0,0,1,.35,1.31,10.12,10.12,0,0,1,.23,3,6,6,0,0,1-.34,1.55,4.14,4.14,0,0,1-.77,1.36,3.68,3.68,0,0,1-1.15.92,4.35,4.35,0,0,1-1.2.43,5,5,0,0,1-1,.11,6.12,6.12,0,0,1-.79,0c-.44-.06-.68-.11-.68-.11l.67-.1c.21,0,.46-.1.75-.16a2.64,2.64,0,0,0,.44-.12c.15-.06.32-.09.48-.17a5.24,5.24,0,0,0,1-.51,3.16,3.16,0,0,0,.44-.38l.21-.21.18-.24a3.9,3.9,0,0,0,.55-1.12,5.63,5.63,0,0,0,.25-1.31,9.06,9.06,0,0,0,0-1.38c0-.46-.06-.92-.13-1.36-.11-.89-.27-1.71-.42-2.43C357.67,126.56,357.42,125.6,357.42,125.6Z"/><path class="cls-32" d="M347.34,119.41c-9.12.61-19.16.91-19.16.91l.46,2.3,27-1.36C353.69,119.87,351,119.16,347.34,119.41Z"/><path class="cls-33" d="M303.85,114s-4.8-55.72-8.59-70.69c0,0-2.28-4-9.11-4H226.41c-6.84,0-9.12,4-9.12,4C215,53.66,208.56,114,208.56,114Z"/><path class="cls-34" d="M217.29,43.28h-18.9c-11.91,0-13.85,20.23-16,60.35-.35,6.57-.6,14-.76,21.9,4.53-3.89,12.77-8.86,26.9-11.56C208.56,114,215,53.66,217.29,43.28Z"/><path class="cls-35" d="M208.56,114c-14.13,2.7-22.37,7.67-26.9,11.56-.84,40.21.4,91.34.4,91.34,0,6.83,6.73,8.72,21.52,8.72H309c14.79,0,21.52-1.89,21.52-8.72,0,0,1.27-52.28.37-92.67-7.41-6.4-19.46-8.27-27-10.23Z"/><path class="cls-36" d="M314.16,43.28h-18.9c3.79,15,8.59,70.69,8.59,70.69,7.55,2,19.6,3.83,27,10.23-.16-7.39-.4-14.37-.73-20.57C328,63.51,326.07,43.28,314.16,43.28Z"/><path class="cls-37" d="M236.4,49.92h38.74c9.71,0,13.67-6.45,15.12-10a14.24,14.24,0,0,0-4.11-.57H226.41a13.48,13.48,0,0,0-5,.87C223,43.82,227,49.92,236.4,49.92Z"/><path class="cls-38" d="M202.27,53.67c5.64-3.57,4.95-7.79,3.7-10.4-.83,0-4.09-.14-5-.06-9.09.76-10.8,3.39-13.28,11.48A14.71,14.71,0,0,0,202.27,53.67Z"/><path class="cls-39" d="M204.41,43.32a10.71,10.71,0,0,1-1.15.09c-10.77-.41-13.18,3.14-15.66,11.23.27.13.57.26.89.39C190.79,51.72,195.4,47.1,204.41,43.32Z"/><g class="cls-40"><path class="cls-41" d="M204.46,43.37c-9,3.78-13.62,8.4-15.92,11.71a14.7,14.7,0,0,0,13.73-1.41c5.64-3.57,4.95-7.79,3.7-10.4Z"/></g><g class="cls-26"><path class="cls-39" d="M189.47,49.47c-.88,1.37-1.19,3.2-1.82,5.22.27.13.57.26.89.39a14.62,14.62,0,0,0,13.13-1C193.51,55.34,190.34,52.25,189.47,49.47Z"/></g><path class="cls-42" d="M205.65,43.89a2.9,2.9,0,0,1,.2.45,5.94,5.94,0,0,1,.34,1.26,7.46,7.46,0,0,1,.09.88,5.61,5.61,0,0,1,0,1,4.89,4.89,0,0,1-.2,1,6.79,6.79,0,0,1-.37,1c-.15.34-.36.64-.54,1s-.45.56-.66.83-.49.46-.72.67a7.5,7.5,0,0,1-.71.52,4.39,4.39,0,0,1-.63.38l-.51.25-.44.2.38-.31.44-.34a5.31,5.31,0,0,0,.54-.46c.19-.19.41-.36.62-.58l.62-.69.57-.8c.15-.3.35-.58.48-.89a6.85,6.85,0,0,0,.36-.95,8.2,8.2,0,0,0,.23-1c.06-.31.09-.62.12-.92s0-.57,0-.84a9.05,9.05,0,0,0-.11-1.26C205.69,44.06,205.65,43.89,205.65,43.89Z"/><path class="cls-38" d="M310.17,53.67c-5.63-3.57-4.95-7.79-3.69-10.4.82,0,4.08-.14,5-.06,9.09.76,10.8,3.39,13.28,11.48A14.71,14.71,0,0,1,310.17,53.67Z"/><path class="cls-39" d="M308,43.32a10.52,10.52,0,0,0,1.14.09C320,43,322.36,46.55,324.84,54.64c-.27.13-.56.26-.88.39C321.65,51.72,317.05,47.1,308,43.32Z"/><g class="cls-43"><path class="cls-44" d="M308,43.37c9,3.78,13.61,8.4,15.92,11.71a14.72,14.72,0,0,1-13.74-1.41c-5.63-3.57-4.95-7.79-3.69-10.4Z"/></g><g class="cls-26"><path class="cls-39" d="M323,49.47c.87,1.37,1.19,3.2,1.81,5.22-.27.13-.56.26-.88.39a14.62,14.62,0,0,1-13.13-1C318.93,55.34,322.11,52.25,323,49.47Z"/></g><path class="cls-42" d="M306.8,43.89a3.44,3.44,0,0,0-.09.48,11.28,11.28,0,0,0-.1,1.26c0,.27,0,.55,0,.84s.06.61.11.92a6.61,6.61,0,0,0,.24,1,6.85,6.85,0,0,0,.36.95c.13.31.32.59.47.89l.58.8.62.69c.2.22.42.39.61.58a5.36,5.36,0,0,0,.55.46c.17.13.31.25.44.34l.38.31-.45-.2-.51-.25a4.39,4.39,0,0,1-.63-.38c-.21-.16-.47-.31-.71-.52l-.72-.67c-.21-.27-.45-.54-.66-.83s-.39-.62-.54-1a8.06,8.06,0,0,1-.37-1,6.56,6.56,0,0,1-.2-1,6.71,6.71,0,0,1,0-1,4.76,4.76,0,0,1,.09-.88,6,6,0,0,1,.33-1.26A3.46,3.46,0,0,1,306.8,43.89Z"/><path class="cls-45" d="M225.74,41.91l2.66-.11c1.69,0,4.11-.14,7-.2s6.29-.13,9.92-.16l5.6,0,5.77,0,5.78,0,5.59,0c3.63,0,7,.1,9.92.17s5.32.16,7,.2l2.66.11L285,42c-1.69.05-4.11.15-7,.21s-6.29.12-9.92.16l-5.59,0-5.78,0-5.77,0-5.6,0c-3.63,0-7-.1-9.92-.16s-5.32-.16-7-.21Z"/><path class="cls-46" d="M227.69,45l2.49-.1c1.59,0,3.86-.14,6.58-.19s5.89-.12,9.29-.15l5.24-.05,5.41,0,5.41,0,5.24,0c3.4,0,6.58.12,9.3.16s5,.15,6.57.19l2.49.1-2.49.1c-1.59,0-3.85.14-6.57.18s-5.9.13-9.3.16l-5.24,0-5.41,0-5.41,0-5.24,0c-3.4,0-6.57-.12-9.29-.16s-5-.14-6.58-.18Z"/><path class="cls-47" d="M234.94,47.72l1.87-.08c1.19,0,2.89-.1,4.93-.13s4.42-.1,7-.12,5.27,0,8,0,5.44,0,8,0,4.93.09,7,.13,3.74.1,4.93.13l1.87.08-1.87.07c-1.19,0-2.89.11-4.93.14s-4.42.1-7,.12-5.27,0-8,.05-5.44,0-8-.05-4.93-.09-7-.12-3.74-.11-4.93-.14Z"/><path class="cls-48" d="M191.6,126.32s4.11,9.64,7.91,18.44,9.83,6.21,20.39,5.77,53.63-1.76,75.17,1.32c12.31.7,15.16-.78,18.72-8.57,3.34-7.31,4.83-8.66,7.47-15.2,3.38-8.36-13.45-14.88-49.42-16.29C238.06,110.47,182.73,111.79,191.6,126.32Z"/><g class="cls-26"><path class="cls-49" d="M271.84,111.79c-33.78-1.32-89.11,0-80.24,14.53,0,0,4.11,9.64,7.91,18.44,1.59,3.67,3.56,5.36,6.09,6.05a11.16,11.16,0,0,1-3-4.34C199,138.14,195.09,129,195.09,129,186.7,115.28,239,114,271,115.28c34,1.33,49.94,7.5,46.74,15.41-2.5,6.19-3.91,7.46-7.06,14.37-1.34,2.92-2.56,4.9-4.28,6.19,3.52-1.09,5.34-3.49,7.39-8,3.34-7.31,4.83-8.66,7.47-15.2C324.64,119.72,307.81,113.2,271.84,111.79Z"/></g><g class="cls-50"><path class="cls-51" d="M210.12,113.88l9.64,36.66h.14c2.39-.1,6.46-.25,11.56-.37l-9.9-37.63C217.5,112.88,213.64,113.32,210.12,113.88Z"/></g><g class="cls-52"><path class="cls-53" d="M253.8,127.1c29.41,13.27,49.43,15.16,62.74,10.6a81.82,81.82,0,0,0,4.72-9.62c3.38-8.36-13.45-14.88-49.42-16.29-33.78-1.32-89.11,0-80.24,14.53l2.83,6.62C205,125,226,114.54,253.8,127.1Z"/></g><path class="cls-42" d="M195.26,135.87s.15.51.47,1.43.83,2.26,1.57,3.93a31.13,31.13,0,0,0,3.21,5.67,13.77,13.77,0,0,0,2.72,2.85,6.28,6.28,0,0,0,3.86,1.43c.34,0,.75,0,1.15-.06l1.2-.08,2.48-.18,5.23-.32c3.58-.19,7.36-.39,11.28-.54l6-.19,3-.09c1,0,2,0,3.07-.05l6.21-.08,3.13,0H253l6.26.06c2.08,0,4.16,0,6.21.1,4.12.11,8.16.28,12.08.41s7.69.45,11.27.67l5.22.33c1.68.12,3.3.22,4.86.29a40.61,40.61,0,0,0,4.43,0,18.51,18.51,0,0,0,2-.23,10.22,10.22,0,0,0,1.8-.57,7.26,7.26,0,0,0,2.72-2,5.66,5.66,0,0,0,.5-.62l.46-.61c.28-.41.53-.82.78-1.2.93-1.56,1.64-2.81,2.12-3.67l.73-1.31-.65,1.35c-.43.88-1,2.19-1.91,3.8-.23.39-.47.82-.74,1.25l-.43.65a6.26,6.26,0,0,1-.49.66,7.78,7.78,0,0,1-2.82,2.32,10,10,0,0,1-1.92.7,19.56,19.56,0,0,1-2.1.35,37.21,37.21,0,0,1-4.54.18c-1.57,0-3.21-.06-4.89-.12l-5.23-.2-11.26-.44c-3.91-.09-7.95-.15-12-.26-2.05-.07-4.12,0-6.2-.07l-6.24,0-3.13,0-3.12,0-6.19.05c-4.11,0-8.15.13-12.06.18l-11.27.31L212,152l-2.49.1-1.21,0c-.4,0-.78,0-1.22,0a6.2,6.2,0,0,1-2.4-.54,8.07,8.07,0,0,1-1.95-1.23,14.8,14.8,0,0,1-2.73-3.12,31.35,31.35,0,0,1-3-5.91c-.67-1.71-1.07-3.09-1.35-4S195.26,135.87,195.26,135.87Z"/><path class="cls-54" d="M204.68,205.07c1.06-12.13,2.11-33.75-3.16-48.52-3.21-9-13.27-22.05-18.66-31.38l-.44-.89-.69.27v85.57c0,6.46.8,11.17,6.42,14.27C195.89,222.17,203.88,214.22,204.68,205.07Z"/><path class="cls-55" d="M201,185.55c0-12.91-1.08-26.37-5.92-36.59-3.1-6.53-9.27-17.68-13.32-24.88v86c0,4.07.32,7.45,2,10.17C204.67,217.86,201,197.53,201,185.55Z"/><path class="cls-42" d="M193.25,141.79s.22.27.61.8.95,1.3,1.61,2.33,1.45,2.28,2.31,3.75c.42.74.86,1.53,1.31,2.38s.89,1.74,1.31,2.7c.22.48.45,1,.67,1.46s.42,1,.63,1.55c.45,1,.81,2.16,1.23,3.29a44.87,44.87,0,0,1,1.82,7.37c.26,1.29.31,2.64.45,4s.14,2.71.2,4.08.13,2.75.2,4.13c0,.7.07,1.39.1,2.09l.06,2.09c0,1.4.05,2.79.08,4.18,0,.7,0,1.39,0,2.08s0,1.39-.05,2.07c0,1.38-.06,2.74-.1,4.09,0,.34,0,.68,0,1s0,.67-.07,1l-.15,2c-.1,1.31-.18,2.59-.29,3.85,0,.31-.05.63-.07.94s-.09.62-.14.93a14,14,0,0,1-.33,1.81,18.41,18.41,0,0,1-2.73,6.28,20.69,20.69,0,0,1-3.89,4.24c-1.3,1.1-2.52,1.95-3.52,2.66s-1.77,1.25-2.29,1.65l-.76.65.72-.69c.5-.43,1.24-1.05,2.21-1.78s2.14-1.65,3.38-2.79a22.28,22.28,0,0,0,3.65-4.28,17.78,17.78,0,0,0,2.46-6.08,16.54,16.54,0,0,0,.28-1.78c0-.3.09-.63.1-.9s0-.62.05-.93c.07-1.26.16-2.53.24-3.83,0-.65.09-1.31.13-2l.06-1c0-.33,0-.67,0-1,0-1.34,0-2.7.06-4.07,0-.68,0-1.36,0-2.05s0-1.38,0-2.07l-.12-4.17,0-2.08c0-.69,0-1.39-.08-2.08-.05-1.39-.11-2.77-.16-4.14s-.11-2.73-.16-4.07-.17-2.63-.41-3.9a50.9,50.9,0,0,0-1.65-7.27c-.38-1.13-.7-2.24-1.12-3.28l-.58-1.55c-.22-.49-.42-1-.63-1.46-.81-1.91-1.65-3.63-2.42-5.14s-1.5-2.79-2.13-3.83C194.05,142.93,193.25,141.79,193.25,141.79Z"/><g class="cls-56"><path class="cls-57" d="M188.86,165.91a63.72,63.72,0,0,1,.57-27.87c-2.64-4.9-5.49-10-7.7-14v86c0,4.07.32,7.45,2,10.17a29,29,0,0,0,3.08-.53C195.29,202.33,192.73,184.77,188.86,165.91Z"/></g><rect class="cls-58" x="181.54" y="192.19" width="22.84" height="5.76"/><g class="cls-59"><rect class="cls-60" x="181.54" y="194.64" width="22.84" height="3.32"/></g><path class="cls-61" d="M307.94,205.07c-1.06-12.13-2.11-33.75,3.16-48.52,3.21-9,13.27-22.05,18.66-31.38l.44-.89.69.27v85.57c0,6.46-.8,11.17-6.42,14.27C316.72,222.17,308.73,214.22,307.94,205.07Z"/><path class="cls-62" d="M311.65,185.55c0-12.91,1.08-26.37,5.92-36.59,3.1-6.53,9.27-17.68,13.32-24.88v86c0,4.07-.32,7.45-2,10.17C308,217.86,311.65,197.53,311.65,185.55Z"/><path class="cls-42" d="M319.36,141.79s-.79,1.14-2,3.24c-.63,1-1.34,2.33-2.13,3.83s-1.61,3.23-2.43,5.14l-.62,1.46-.58,1.55c-.42,1-.74,2.15-1.12,3.28a50.9,50.9,0,0,0-1.65,7.27c-.25,1.27-.28,2.58-.41,3.9s-.11,2.7-.16,4.07-.11,2.75-.16,4.14l-.09,2.08,0,2.08-.12,4.17c0,.69-.05,1.38-.05,2.07l0,2.05c0,1.37,0,2.73.06,4.07,0,.33,0,.67,0,1l.06,1c0,.66.08,1.32.13,2,.08,1.3.17,2.57.23,3.83l.06.93c0,.27.07.6.1.9a14.37,14.37,0,0,0,.28,1.78,17.39,17.39,0,0,0,2.46,6.08,22.28,22.28,0,0,0,3.65,4.28c1.24,1.14,2.42,2,3.38,2.79s1.71,1.35,2.2,1.78l.73.69-.76-.65c-.52-.4-1.3-1-2.3-1.65s-2.21-1.56-3.52-2.66a21.26,21.26,0,0,1-3.89-4.24,18.21,18.21,0,0,1-2.72-6.28,16,16,0,0,1-.34-1.81c0-.31-.09-.58-.13-.93s-.05-.63-.08-.94c-.1-1.26-.19-2.54-.29-3.85,0-.65-.09-1.31-.14-2,0-.33-.05-.67-.07-1l0-1c0-1.35-.06-2.71-.09-4.09,0-.68,0-1.37-.05-2.07s0-1.38,0-2.08c0-1.39.05-2.78.08-4.18l.06-2.09c0-.7.07-1.39.1-2.09.06-1.38.13-2.76.2-4.13s.13-2.73.19-4.08.2-2.7.45-4a45.91,45.91,0,0,1,1.83-7.37c.42-1.13.77-2.25,1.22-3.29l.64-1.55.66-1.46c.42-1,.9-1.85,1.32-2.7s.89-1.64,1.31-2.38c.85-1.47,1.63-2.74,2.31-3.75s1.23-1.8,1.61-2.33S319.36,141.79,319.36,141.79Z"/><g class="cls-56"><path class="cls-63" d="M323.76,165.91a63.72,63.72,0,0,0-.57-27.87c2.63-4.9,5.48-10,7.7-14v86c0,4.07-.32,7.45-2,10.17a29.6,29.6,0,0,1-3.09-.53C317.33,202.33,319.89,184.77,323.76,165.91Z"/></g><rect class="cls-64" x="308.12" y="192.19" width="22.84" height="5.76"/><g class="cls-65"><path class="cls-66" d="M303.82,208c0,3.4-2.13,6.16-4.76,6.16H213c-2.64,0-4.77-2.76-4.77-6.16V164.57c0-3.4,2.13-6.16,4.77-6.16h86c2.63,0,4.76,2.76,4.76,6.16Z"/></g><g class="cls-67"><path class="cls-68" d="M287.78,54.23s-15.06,47.88-70.48,54.88c5.38-51.12,1.62-55.42,15.61-55.42S287.78,54.23,287.78,54.23Z"/></g><g class="cls-69"><path class="cls-70" d="M210.07,65.08s-1.82,13-3.56,24-7.85,13-13.46,15.79-7.57-.57-5.17-14.89,2.32-25.47,9.47-27.63S211.4,58.06,210.07,65.08Z"/></g><g class="cls-71"><path class="cls-72" d="M206,60.32c1.26,1.69,2.19,4.77,1.24,10.35-1.31,7.59-3.34,20-4.63,28,1.79-2.14,3.19-5.12,3.9-9.57,1.74-11.07,3.56-24,3.56-24C210.81,61.16,209,60.11,206,60.32Z"/></g><g class="cls-73"><path class="cls-74" d="M304.69,65.08s1.82,13,3.57,24,7.84,13,13.45,15.79,7.57-.57,5.17-14.89-2.31-25.47-9.47-27.63S303.36,58.06,304.69,65.08Z"/></g><g class="cls-75"><path class="cls-76" d="M308.76,60.32c-1.26,1.69-2.19,4.77-1.23,10.35,1.3,7.59,3.33,20,4.62,28-1.79-2.14-3.19-5.12-3.89-9.57-1.75-11.07-3.57-24-3.57-24C304,61.16,305.77,60.11,308.76,60.32Z"/></g><polygon class="cls-77" points="181.62 244.69 173.72 233.93 173.72 452.36 181.62 441.6 181.62 244.69"/><polygon class="cls-78" points="326.15 244.69 334.05 233.93 173.72 233.93 181.62 244.69 326.15 244.69"/><polygon class="cls-79" points="181.62 441.6 173.72 452.36 334.05 452.36 326.15 441.6 181.62 441.6"/><polygon class="cls-80" points="326.15 244.69 326.15 441.6 334.05 452.36 334.05 233.93 326.15 244.69"/><rect class="cls-81" x="185.12" y="452.69" width="139.34" height="7.98"/><rect class="cls-82" x="181.62" y="244.69" width="144.53" height="196.92"/><g class="cls-83"><rect class="cls-84" x="307.97" y="194.64" width="22.84" height="3.32"/></g><rect class="cls-85" x="194.93" y="228.05" width="119.12" height="4.4"/><rect class="cls-86" x="194.93" y="452.53" width="119.12" height="4.4"/><g class="cls-87"><path class="cls-88" d="M188.71,343.28V244.69h-7.09V441.6H326.16v-2.14C225.17,437.65,188.71,414.05,188.71,343.28Z"/></g><g class="cls-89"><path class="cls-90" d="M319.07,343V441.6h7.09V244.69H181.62v2.14C282.61,248.64,319.07,272.24,319.07,343Z"/></g><path class="cls-42" d="M217.65,102.33s0-.4,0-1.15,0-1.87.09-3.27.12-3.12.22-5.08.17-4.17.35-6.58.33-5,.55-7.78.5-5.67.83-8.68a85,85,0,0,1,1.3-9.32,12.91,12.91,0,0,1,2-4.86,8.63,8.63,0,0,1,.94-1.09l.56-.46a3.62,3.62,0,0,1,.61-.41c.21-.12.42-.25.63-.36l.66-.27.34-.13.33-.09.68-.18c.45-.08.89-.13,1.34-.19l1.32,0h2.4l4.78,0c3.17,0,6.28.08,9.29.11s5.93.11,8.69.18,5.38.14,7.79.22c4.82.15,8.84.34,11.66.48,1.4.07,2.51.15,3.26.19l1.15.07-1.15.07c-.75,0-1.86.12-3.26.19-2.82.14-6.84.33-11.66.49-2.41.08-5,.16-7.79.22s-5.67.14-8.69.17-6.12.11-9.29.11l-4.78,0-2.4,0-1.09,0c-.35,0-.71.09-1,.16a6,6,0,0,0-1.83.68,2.75,2.75,0,0,0-.4.26l-.37.29a7.52,7.52,0,0,0-.63.73,10.82,10.82,0,0,0-1.6,3.92c-.34,1.47-.61,3-.85,4.52s-.42,3-.62,4.53c-.4,3-.86,5.84-1.17,8.58s-.68,5.33-1,7.72-.6,4.58-.85,6.53-.49,3.63-.69,5-.35,2.49-.46,3.24S217.65,102.33,217.65,102.33Z"/><path class="cls-91" d="M292.51,244.6c-4.62.12-9.24.24-13.86.31l-13.86.27c-4.62.1-9.24.14-13.86.21l-13.86.16-13.86.14-13.87.08-13.86.07-13.86,0,1.27-1.27c0,5.46,0,10.93,0,16.4l0,16.41-.08,16.4-.11,16.41-.16,16.41-.23,16.4-.3,16.41-.16,8.2-.21,8.21-.21-8.21-.16-8.2L181,343l-.23-16.4-.16-16.41-.11-16.41-.08-16.4,0-16.41c0-5.47,0-10.94,0-16.4v-1.28h1.27l13.86,0,13.86.07,13.87.08,13.86.14,13.86.16c4.62.08,9.24.11,13.86.21l13.86.27Q285.58,244.4,292.51,244.6Z"/></g></g></svg>